<?xml version="1.0" encoding="UTF-8" standalone="no"?>
<svg
   width="98.277824mm"
   height="75.32972mm"
   viewBox="0 0 98.277824 75.32972"
   version="1.1"
   id="svg8"
   inkscape:version="1.1.1 (3bf5ae0d25, 2021-09-20)"
   sodipodi:docname="openqa_architecture.svg"
   xmlns:inkscape="http://www.inkscape.org/namespaces/inkscape"
   xmlns:sodipodi="http://sodipodi.sourceforge.net/DTD/sodipodi-0.dtd"
   xmlns="http://www.w3.org/2000/svg"
   xmlns:svg="http://www.w3.org/2000/svg"
   xmlns:rdf="http://www.w3.org/1999/02/22-rdf-syntax-ns#"
   xmlns:cc="http://creativecommons.org/ns#"
   xmlns:dc="http://purl.org/dc/elements/1.1/">
  <defs
     id="defs2">
    <marker
       style="overflow:visible"
       id="Arrow1Mstart"
       refX="0"
       refY="0"
       orient="auto"
       inkscape:stockid="Arrow1Mstart"
       inkscape:isstock="true">
      <path
         transform="matrix(0.4,0,0,0.4,4,0)"
         style="fill:#000000;fill-opacity:1;fill-rule:evenodd;stroke:#000000;stroke-width:1pt;stroke-opacity:1"
         d="M 0,0 5,-5 -12.5,0 5,5 Z"
         id="path984" />
    </marker>
    <marker
       style="overflow:visible"
       id="marker1816"
       refX="0"
       refY="0"
       orient="auto"
       inkscape:stockid="Arrow1Mend"
       inkscape:isstock="true">
      <path
         transform="matrix(-0.4,0,0,-0.4,-4,0)"
         style="fill:#000000;fill-opacity:1;fill-rule:evenodd;stroke:#000000;stroke-width:1pt;stroke-opacity:1"
         d="M 0,0 5,-5 -12.5,0 5,5 Z"
         id="path1814" />
    </marker>
    <rect
       x="86.226654"
       y="124.63387"
       width="43.235329"
       height="24.310625"
       id="rect1430" />
    <marker
       style="overflow:visible"
       id="marker1332"
       refX="0"
       refY="0"
       orient="auto"
       inkscape:stockid="Arrow1Mend"
       inkscape:isstock="true">
      <path
         transform="matrix(-0.4,0,0,-0.4,-4,0)"
         style="fill:#000000;fill-opacity:1;fill-rule:evenodd;stroke:#000000;stroke-width:1pt;stroke-opacity:1"
         d="M 0,0 5,-5 -12.5,0 5,5 Z"
         id="path1330" />
    </marker>
    <marker
       style="overflow:visible"
       id="Arrow1Mend"
       refX="0"
       refY="0"
       orient="auto"
       inkscape:stockid="Arrow1Mend"
       inkscape:isstock="true"
       inkscape:collect="always">
      <path
         transform="matrix(-0.4,0,0,-0.4,-4,0)"
         style="fill:#000000;fill-opacity:1;fill-rule:evenodd;stroke:#000000;stroke-width:1pt;stroke-opacity:1"
         d="M 0,0 5,-5 -12.5,0 5,5 Z"
         id="path987" />
    </marker>
    <marker
       style="overflow:visible"
       id="Arrow1Lend"
       refX="0"
       refY="0"
       orient="auto"
       inkscape:stockid="Arrow1Lend"
       inkscape:isstock="true">
      <path
         transform="matrix(-0.8,0,0,-0.8,-10,0)"
         style="fill:#000000;fill-opacity:1;fill-rule:evenodd;stroke:#000000;stroke-width:1pt;stroke-opacity:1"
         d="M 0,0 5,-5 -12.5,0 5,5 Z"
         id="path981" />
    </marker>
    <marker
       style="overflow:visible"
       id="Arrow1Mend-8"
       refX="0"
       refY="0"
       orient="auto"
       inkscape:stockid="Arrow1Mend"
       inkscape:isstock="true"
       inkscape:collect="always">
      <path
         transform="matrix(-0.4,0,0,-0.4,-4,0)"
         style="fill:#000000;fill-opacity:1;fill-rule:evenodd;stroke:#000000;stroke-width:1pt;stroke-opacity:1"
         d="M 0,0 5,-5 -12.5,0 5,5 Z"
         id="path987-7" />
    </marker>
    <marker
       style="overflow:visible"
       id="Arrow1Mstart-1"
       refX="0"
       refY="0"
       orient="auto"
       inkscape:stockid="Arrow1Mstart"
       inkscape:isstock="true">
      <path
         transform="matrix(0.4,0,0,0.4,4,0)"
         style="fill:#000000;fill-opacity:1;fill-rule:evenodd;stroke:#000000;stroke-width:1pt;stroke-opacity:1"
         d="M 0,0 5,-5 -12.5,0 5,5 Z"
         id="path984-5" />
    </marker>
    <marker
       style="overflow:visible"
       id="Arrow1Mstart-1-4"
       refX="0"
       refY="0"
       orient="auto"
       inkscape:stockid="Arrow1Mstart"
       inkscape:isstock="true">
      <path
         transform="matrix(0.4,0,0,0.4,4,0)"
         style="fill:#000000;fill-opacity:1;fill-rule:evenodd;stroke:#000000;stroke-width:1pt;stroke-opacity:1"
         d="M 0,0 5,-5 -12.5,0 5,5 Z"
         id="path984-5-9" />
    </marker>
    <marker
       style="overflow:visible"
       id="marker1816-0"
       refX="0"
       refY="0"
       orient="auto"
       inkscape:stockid="Arrow1Mend"
       inkscape:isstock="true">
      <path
         transform="matrix(-0.4,0,0,-0.4,-4,0)"
         style="fill:#000000;fill-opacity:1;fill-rule:evenodd;stroke:#000000;stroke-width:1pt;stroke-opacity:1"
         d="M 0,0 5,-5 -12.5,0 5,5 Z"
         id="path1814-9" />
    </marker>
  </defs>
  <sodipodi:namedview
     id="base"
     pagecolor="#ffffff"
     bordercolor="#666666"
     borderopacity="1.0"
     inkscape:pageopacity="0.0"
     inkscape:pageshadow="2"
     inkscape:zoom="1.979899"
     inkscape:cx="131.06729"
     inkscape:cy="200.51528"
     inkscape:document-units="mm"
     inkscape:current-layer="layer1"
     inkscape:document-rotation="0"
     showgrid="false"
     inkscape:window-width="1916"
     inkscape:window-height="1041"
     inkscape:window-x="1920"
     inkscape:window-y="1042"
     inkscape:window-maximized="0"
     fit-margin-top="0"
     fit-margin-left="0"
     fit-margin-right="0"
     fit-margin-bottom="0"
     inkscape:pagecheckerboard="0" />
  <metadata
     id="metadata5">
    <rdf:RDF>
      <cc:Work
         rdf:about="">
        <dc:format>image/svg+xml</dc:format>
        <dc:type
           rdf:resource="http://purl.org/dc/dcmitype/StillImage" />
      </cc:Work>
    </rdf:RDF>
  </metadata>
  <g
     inkscape:label="Layer 1"
     inkscape:groupmode="layer"
     id="layer1"
     transform="translate(-67.126992,-132.32135)">
    <path
       d="m 134.45918,200.9799 c 0.50691,0 0.91704,-0.41475 0.91704,-0.92165 l 0.005,-4.60818 c 0,-0.50691 -0.41475,-0.92164 -0.92164,-0.92164 h -7.3731 c -0.50691,0 -0.92164,0.41473 -0.92164,0.92164 v 4.60818 c 0,0.5069 0.41473,0.92165 0.92164,0.92165 h -1.84329 v 0.92162 h 11.05966 v -0.92162 z m -7.3731,-5.52983 h 7.3731 v 4.60818 h -7.3731 z"
       id="path863"
       style="fill:#000000;fill-opacity:1;stroke-width:0.460818" />
    <text
       xml:space="preserve"
       style="font-size:5.64444px;line-height:1.25;font-family:'Liberation Mono';-inkscape-font-specification:'Liberation Mono';stroke-width:0.264583"
       x="125.06468"
       y="207.59595"
       id="text887"><tspan
         sodipodi:role="line"
         id="tspan885"
         x="125.06468"
         y="207.59595"
         style="font-style:normal;font-variant:normal;font-weight:normal;font-stretch:normal;font-size:5.64444px;font-family:'Liberation Sans';-inkscape-font-specification:'Liberation Sans';stroke-width:0.264583">SUT</tspan></text>
    <rect
       style="fill:none;stroke:#000000;stroke-width:0.4;stroke-miterlimit:4;stroke-dasharray:none;stroke-opacity:1;stop-color:#000000"
       id="rect889"
       width="15.592079"
       height="19.435762"
       x="74.713081"
       y="141.43958" />
    <text
       xml:space="preserve"
       style="font-size:5.64444px;line-height:1.25;font-family:'Liberation Mono';-inkscape-font-specification:'Liberation Mono';stroke-width:0.264583"
       x="77.45536"
       y="138.51012"
       id="text893"><tspan
         sodipodi:role="line"
         id="tspan891"
         x="77.45536"
         y="138.51012"
         style="font-style:normal;font-variant:normal;font-weight:normal;font-stretch:normal;font-size:5.64444px;font-family:'Liberation Sans';-inkscape-font-specification:'Liberation Sans';stroke-width:0.264583">openQA</tspan></text>
    <g
       style="fill:none"
       id="g930"
       transform="matrix(0.04753492,0,0,0.04753492,152.04109,174.50458)">
      <g
         id="g2369"
         transform="matrix(1.8054785,0,0,1.8054785,-14.840955,-92.044741)">
        <path
           d="m 144.618,79.1998 c 11.536,6.787 19.289,19.3223 19.314,33.6772 0.037,21.607 -17.448,39.154 -39.055,39.191 -21.608,0.038 -39.1545,-17.448 -39.1923,-39.055 -0.025,-14.3543 7.6836,-26.9166 19.1963,-33.7439 l 11.242,18.9975 c 0.282,0.4765 0.122,1.0888 -0.336,1.4003 -4.251,2.8941 -7.039,7.7761 -7.029,13.3061 0.015,8.864 7.214,16.038 16.078,16.022 8.865,-0.015 16.038,-7.214 16.023,-16.078 -0.01,-5.53 -2.815,-10.402 -7.076,-13.2815 -0.459,-0.3099 -0.621,-0.9216 -0.341,-1.3991 z"
           fill="#128dff"
           id="path895" />
        <path
           d="M 58.2668,78.9714 C 52.6177,75.8052 46.1027,74 39.1662,74 17.5588,74 0.0426025,91.5162 0.0426025,113.124 c 0,21.607 17.5161975,39.123 39.1235975,39.123 21.7136,0 39.6567,-18.434 39.1109,-40.127 H 56.2529 c -0.5783,0 -1.0337,0.489 -1.0374,1.068 -0.0559,8.645 -7.2692,15.986 -16.0493,15.986 -8.8646,0 -16.0507,-7.186 -16.0507,-16.05 0,-8.865 7.1861,-16.0511 16.0507,-16.0511 2.3214,0 4.5278,0.4928 6.5201,1.3796 0.4869,0.2167 1.0679,0.0525 1.3384,-0.4066 z"
           fill="#8bda67"
           id="path897" />
        <path
           d="M 61.431,72.834 C 49.9062,66.0268 42.1757,53.4779 42.1757,39.1235 42.1757,17.5162 59.6919,0 81.2992,0 c 21.6078,0 39.1238,17.5162 39.1238,39.1235 0,14.3544 -7.731,26.9033 -19.256,33.7105 L 89.9591,53.8169 c -0.2811,-0.477 -0.1205,-1.089 0.3377,-1.3998 4.2563,-2.8864 7.0531,-7.7634 7.0531,-13.2936 0,-8.8645 -7.1861,-16.0506 -16.0507,-16.0506 -8.8645,0 -16.0507,7.1861 -16.0507,16.0506 0,5.5302 2.7968,10.4072 7.0531,13.2936 0.4583,0.3108 0.6188,0.9228 0.3377,1.3998 z"
           fill="#ff2a44"
           id="path899" />
        <path
           d="m 15.6999,173.626 c 5.0436,0 8.5426,1.213 10.497,3.641 1.9859,2.427 2.9789,6.856 2.9789,13.286 0,6.431 -0.993,10.86 -2.9789,13.287 -1.9544,2.427 -5.4534,3.641 -10.497,3.641 -5.012,0 -8.51103,-1.214 -10.49695,-3.641 -1.95439,-2.427 -2.93159,-6.856 -2.93159,-13.287 0,-6.43 0.9772,-10.859 2.93159,-13.286 1.98592,-2.428 5.48495,-3.641 10.49695,-3.641 z m 0,5.059 c -2.7424,0 -4.6338,0.851 -5.674,2.553 -1.00873,1.671 -1.51309,4.776 -1.51309,9.315 0,4.539 0.50436,7.66 1.51309,9.362 1.0402,1.671 2.9316,2.506 5.674,2.506 2.774,0 4.6654,-0.835 5.6741,-2.506 1.0402,-1.702 1.5603,-4.823 1.5603,-9.362 0,-4.539 -0.5201,-7.644 -1.5603,-9.315 -1.0087,-1.702 -2.9001,-2.553 -5.6741,-2.553 z"
           fill="#000000"
           id="path901" />
        <path
           d="m 37.6461,183.697 0.3782,3.452 c 1.0718,-1.198 2.4903,-2.175 4.2556,-2.932 1.7968,-0.756 3.5463,-1.135 5.2485,-1.135 5.2642,0 7.8963,4.13 7.8963,12.389 0,4.381 -0.725,7.471 -2.175,9.267 -1.4185,1.797 -3.6566,2.696 -6.7143,2.696 -3.1207,0 -5.8001,-0.757 -8.0382,-2.27 0.1261,1.608 0.1734,3.215 0.1418,4.823 v 6.099 h -5.7213 v -32.389 z m 0.9929,6.998 v 11.064 c 2.9631,0.662 5.0279,0.993 6.1942,0.993 1.7653,0 2.9789,-0.472 3.6408,-1.418 0.6935,-0.977 1.0403,-2.947 1.0403,-5.911 0,-2.9 -0.3152,-4.886 -0.9457,-5.957 -0.5989,-1.104 -1.6549,-1.655 -3.168,-1.655 -1.0402,0 -2.0647,0.236 -3.0734,0.709 -0.9772,0.441 -2.2066,1.166 -3.6882,2.175 z"
           fill="#000000"
           id="path903" />
        <path
           d="m 74.0565,197.693 h -9.4567 c 0.2206,2.018 0.7881,3.373 1.7022,4.066 0.9142,0.662 2.4115,0.993 4.492,0.993 2.3641,0 5.1381,-0.189 8.3219,-0.567 l 0.5201,3.688 c -2.175,1.04 -5.3588,1.561 -9.5513,1.561 -4.1925,0 -7.1714,-0.93 -8.9366,-2.79 -1.7653,-1.86 -2.6479,-4.997 -2.6479,-9.41 0,-4.507 0.8669,-7.66 2.6006,-9.456 1.7337,-1.829 4.6023,-2.743 8.6056,-2.743 3.6882,0 6.3676,0.678 8.0383,2.033 1.6706,1.324 2.506,3.326 2.506,6.005 0,4.413 -2.0647,6.62 -6.1942,6.62 z m -9.5513,-4.019 h 7.9437 c 1.387,0 2.0805,-0.898 2.0805,-2.695 0,-1.261 -0.331,-2.144 -0.993,-2.648 -0.662,-0.504 -1.8598,-0.757 -3.5936,-0.757 -2.0174,0 -3.4201,0.426 -4.2082,1.277 -0.7565,0.82 -1.1663,2.427 -1.2294,4.823 z"
           fill="#000000"
           id="path905" />
        <path
           d="m 88.2977,183.697 0.3782,3.405 c 3.5936,-2.711 6.935,-4.067 10.0242,-4.067 2.0489,0 3.6249,0.552 4.7279,1.655 1.104,1.103 1.655,2.695 1.655,4.776 v 17.4 h -5.7682 v -15.651 c 0,-1.292 -0.1734,-2.159 -0.5202,-2.6 -0.3467,-0.473 -0.9929,-0.71 -1.9386,-0.71 -1.0718,0 -2.175,0.221 -3.3099,0.662 -1.1032,0.442 -2.5375,1.167 -4.3028,2.175 v 16.124 h -5.7686 v -23.169 z"
           fill="#000000"
           id="path907" />
        <path
           d="m 131.476,201.759 0.52,4.445 c -2.616,0.82 -5.958,1.23 -10.024,1.23 -4.886,0 -8.322,-1.261 -10.308,-3.783 -1.986,-2.522 -2.979,-6.888 -2.979,-13.098 0,-6.21 0.993,-10.576 2.979,-13.097 1.986,-2.522 5.422,-3.783 10.308,-3.783 3.625,0 6.746,0.347 9.362,1.04 l -0.567,4.492 c -2.743,-0.221 -5.674,-0.331 -8.795,-0.331 -2.711,0 -4.571,0.836 -5.579,2.506 -0.978,1.639 -1.466,4.697 -1.466,9.173 0,4.476 0.488,7.55 1.466,9.221 1.008,1.639 2.868,2.458 5.579,2.458 4.003,0 7.171,-0.157 9.504,-0.473 z"
           fill="#000000"
           id="path909" />
        <path
           d="m 161.749,174.24 -9.221,30.971 c -0.315,1.103 -1.04,1.655 -2.175,1.655 h -5.579 c -0.504,0 -0.962,-0.142 -1.371,-0.425 -0.379,-0.316 -0.631,-0.725 -0.757,-1.23 l -9.267,-30.971 h 6.099 l 6.667,24.493 c 0.095,0.379 0.237,0.993 0.426,1.844 0.189,0.82 0.331,1.419 0.425,1.797 h 1.182 c 0.189,-1.009 0.489,-2.222 0.899,-3.641 l 6.572,-24.493 z"
           fill="#000000"
           id="path911" />
      </g>
    </g>
    <path
       d="m 114.64757,189.5564 v 2.09815 h 1.85209 c 0,-1.0795 -0.80698,-1.9685 -1.85209,-2.09815 z m -2.38125,3.68565 c 0,1.16946 0.94721,2.11667 2.11667,2.11667 1.16946,0 2.11667,-0.94721 2.11667,-2.11667 v -1.05833 h -4.23334 z m 1.85209,-3.68565 c -1.04511,0.12965 -1.85209,1.01865 -1.85209,2.09815 h 1.85209 z"
       id="path952"
       style="stroke-width:0.264583" />
    <path
       d="m 106.95879,190.69068 h -4.23333 c -0.29104,0 -0.52652,0.23813 -0.52652,0.52917 l -0.003,2.64583 c 0,0.29104 0.23812,0.52917 0.52916,0.52917 h 4.23334 c 0.29104,0 0.52916,-0.23813 0.52916,-0.52917 v -2.64583 c 0,-0.29104 -0.23812,-0.52917 -0.52916,-0.52917 z m -2.38125,0.79375 h 0.52917 v 0.52917 h -0.52917 z m 0,0.79375 h 0.52917 v 0.52917 h -0.52917 z m -0.79375,-0.79375 h 0.52917 v 0.52917 h -0.52917 z m 0,0.79375 h 0.52917 v 0.52917 h -0.52917 z m -0.26458,0.52917 h -0.52917 v -0.52917 h 0.52917 z m 0,-0.79375 h -0.52917 v -0.52917 h 0.52917 z m 2.38125,1.85208 h -2.11667 v -0.52917 h 2.11667 z m 0,-1.05833 h -0.52917 v -0.52917 h 0.52917 z m 0,-0.79375 h -0.52917 v -0.52917 h 0.52917 z m 0.79375,0.79375 h -0.52917 v -0.52917 h 0.52917 z m 0,-0.79375 h -0.52917 v -0.52917 h 0.52917 z"
       id="path963"
       style="stroke-width:0.264583" />
    <path
       style="fill:none;stroke:#000000;stroke-width:0.264583px;stroke-linecap:butt;stroke-linejoin:miter;stroke-opacity:1;marker-end:url(#marker1332)"
       d="m 109.76802,170.62665 v 28.05913 h 13.03131"
       id="path974"
       sodipodi:nodetypes="ccc" />
    <path
       style="fill:none;stroke:#000000;stroke-width:0.265;stroke-linecap:butt;stroke-linejoin:miter;stroke-miterlimit:4;stroke-dasharray:none;stroke-opacity:1;marker-end:url(#Arrow1Mend)"
       d="m 138.05462,198.95273 h 10.00675 v -2.86349"
       id="path976"
       sodipodi:nodetypes="ccc" />
    <rect
       style="fill:none;stroke:#000000;stroke-width:0.4;stroke-miterlimit:4;stroke-dasharray:none;stroke-opacity:1;stop-color:#000000"
       id="rect889-6"
       width="27.967413"
       height="7.2785187"
       x="116.56696"
       y="142.90068" />
    <text
       xml:space="preserve"
       style="font-size:5.64444px;line-height:1.25;font-family:'Liberation Mono';-inkscape-font-specification:'Liberation Mono';stroke-width:0.264583"
       x="125.60287"
       y="148.25362"
       id="text893-6"><tspan
         sodipodi:role="line"
         id="tspan891-4"
         x="125.60287"
         y="148.25362"
         style="font-style:normal;font-variant:normal;font-weight:normal;font-stretch:normal;font-size:5.64444px;font-family:'Liberation Sans';-inkscape-font-specification:'Liberation Sans';stroke-width:0.264583">worker</tspan></text>
    <text
       xml:space="preserve"
       id="text1428"
       style="font-size:10.5833px;line-height:1.25;font-family:'Liberation Mono';-inkscape-font-specification:'Liberation Mono';white-space:pre;shape-inside:url(#rect1430)" />
    <rect
       style="fill:none;stroke:#000000;stroke-width:0.4;stroke-miterlimit:4;stroke-dasharray:none;stroke-opacity:1;stop-color:#000000"
       id="rect889-6-5"
       width="44.246826"
       height="9.0995121"
       x="108.78644"
       y="159.69255" />
    <text
       xml:space="preserve"
       style="font-size:7.05556px;line-height:1.25;font-family:'Liberation Mono';-inkscape-font-specification:'Liberation Mono';stroke-width:0.264583"
       x="112.69003"
       y="165.93626"
       id="text893-6-0"><tspan
         sodipodi:role="line"
         id="tspan891-4-4"
         x="112.69003"
         y="165.93626"
         style="font-style:normal;font-variant:normal;font-weight:normal;font-stretch:normal;font-size:5.64444px;font-family:'Liberation Mono';-inkscape-font-specification:'Liberation Mono';stroke-width:0.264583">os-autoinst</tspan></text>
    <path
       style="font-variation-settings:normal;opacity:1;vector-effect:none;fill:none;fill-opacity:1;stroke:#000000;stroke-width:0.265;stroke-linecap:butt;stroke-linejoin:miter;stroke-miterlimit:4;stroke-dasharray:none;stroke-dashoffset:0;stroke-opacity:1;marker-end:url(#Arrow1Mend-8);stop-color:#000000;stop-opacity:1"
       d="M 148.07104,188.65256 V 170.44323"
       id="path976-1"
       sodipodi:nodetypes="cc" />
    <path
       style="fill:none;stroke:#000000;stroke-width:0.265;stroke-linecap:butt;stroke-linejoin:miter;stroke-miterlimit:4;stroke-dasharray:none;stroke-opacity:1;marker-start:url(#Arrow1Mstart-1);marker-end:url(#marker1816)"
       d="M 130.8213,157.80202 V 151.763"
       id="path976-1-6-9"
       sodipodi:nodetypes="cc" />
    <path
       style="fill:none;stroke:#000000;stroke-width:0.265;stroke-linecap:butt;stroke-linejoin:miter;stroke-miterlimit:4;stroke-dasharray:none;stroke-opacity:1;marker-start:url(#Arrow1Mstart-1-4);marker-end:url(#marker1816-0)"
       d="M 93.083521,146.60738 H 113.89212"
       id="path976-1-6-9-1"
       sodipodi:nodetypes="cc" />
    <g
       id="g957"
       transform="translate(24.693807,11.192205)">
      <path
         d="m 96.285264,136.21014 c -0.706438,0 -2.116667,0.35454 -2.116667,1.05833 v 0.52917 h 4.233334 v -0.52917 c 0,-0.70379 -1.41023,-1.05833 -2.116667,-1.05833 z"
         id="path2"
         style="stroke-width:0.264583" />
      <path
         d="m 99.751307,134.05114 c 0.003,-0.0291 0.005,-0.0582 0.005,-0.09 0,-0.0317 -0.003,-0.0608 -0.008,-0.09 l 0.19579,-0.15346 c 0.0185,-0.0132 0.0212,-0.0397 0.0106,-0.0582 l -0.18521,-0.32015 c -0.0106,-0.0212 -0.037,-0.0265 -0.0556,-0.0212 l -0.22754,0.0926 c -0.0476,-0.037 -0.10055,-0.0661 -0.15611,-0.09 l -0.0344,-0.24606 c -0.005,-0.0238 -0.0238,-0.0397 -0.0476,-0.0397 h -0.37042 c -0.0238,0 -0.0423,0.0159 -0.045,0.0397 l -0.0344,0.24606 c -0.0556,0.0238 -0.10848,0.0556 -0.15611,0.09 l -0.230183,-0.0926 c -0.02117,-0.008 -0.04498,0 -0.05556,0.0212 l -0.185208,0.32015 c -0.01058,0.0212 -0.0079,0.045 0.01058,0.0582 l 0.195792,0.15346 c -0.0053,0.0291 -0.0079,0.0609 -0.0079,0.09 0,0.0291 0.0026,0.0609 0.0079,0.09 l -0.195792,0.15346 c -0.01852,0.0132 -0.02117,0.0397 -0.01058,0.0582 l 0.185208,0.32014 c 0.01058,0.0212 0.03704,0.0265 0.05556,0.0212 l 0.230183,-0.0926 c 0.0476,0.037 0.10055,0.0661 0.15611,0.09 l 0.0344,0.24607 c 0.003,0.0238 0.0212,0.0397 0.045,0.0397 h 0.37042 c 0.0238,0 0.0423,-0.0159 0.045,-0.0397 l 0.0344,-0.24607 c 0.0556,-0.0238 0.10847,-0.0556 0.1561,-0.09 l 0.23019,0.0926 c 0.0212,0.008 0.045,0 0.0556,-0.0212 l 0.18521,-0.32014 c 0.0106,-0.0212 0.008,-0.045 -0.0106,-0.0582 z m -0.68792,0.24077 c -0.18256,0 -0.33073,-0.14817 -0.33073,-0.33073 0,-0.18256 0.14817,-0.33073 0.33073,-0.33073 0.18256,0 0.33073,0.14817 0.33073,0.33073 0,0.18256 -0.14817,0.33073 -0.33073,0.33073 z"
         id="path4"
         style="stroke-width:0.264583" />
      <path
         d="m 99.174517,135.33172 -0.13229,-0.23018 c -0.008,-0.0159 -0.0265,-0.0212 -0.0397,-0.0159 l -0.16404,0.0661 c -0.0344,-0.0265 -0.0714,-0.0476 -0.11113,-0.0635 l -0.0238,-0.17463 c -0.005,-0.0159 -0.0212,-0.0265 -0.037,-0.0265 h -0.264586 c -0.01588,0 -0.02911,0.0106 -0.03175,0.0291 l -0.02381,0.17462 c -0.03969,0.0159 -0.07673,0.0397 -0.111125,0.0635 l -0.164042,-0.0661 c -0.01587,-0.005 -0.03175,0 -0.03969,0.0159 l -0.132292,0.23019 c -0.0079,0.0159 -0.0053,0.0318 0.0079,0.0423 l 0.140229,0.10848 c -0.0026,0.0212 -0.0053,0.0423 -0.0053,0.0635 0,0.0212 0.0026,0.045 0.0053,0.0635 l -0.140229,0.10848 c -0.01323,0.0106 -0.01588,0.0291 -0.0079,0.0423 l 0.132292,0.23019 c 0.0079,0.0159 0.02646,0.0212 0.03969,0.0159 l 0.164042,-0.0661 c 0.0344,0.0265 0.07144,0.0476 0.111125,0.0635 l 0.02381,0.17463 c 0.0026,0.0185 0.01587,0.0291 0.03175,0.0291 h 0.264586 c 0.0159,0 0.0318,-0.0106 0.0318,-0.0291 l 0.0238,-0.17463 c 0.0397,-0.0159 0.0767,-0.0397 0.11112,-0.0635 l 0.16405,0.0661 c 0.0159,0.005 0.0318,0 0.0397,-0.0159 l 0.1323,-0.23019 c 0.008,-0.0159 0.005,-0.0318 -0.008,-0.0423 l -0.13759,-0.10848 c 0.003,-0.0212 0.005,-0.0423 0.005,-0.0635 0,-0.0212 -0.003,-0.045 -0.005,-0.0635 l 0.14023,-0.10848 c 0.0132,-0.0106 0.0159,-0.0291 0.0106,-0.045 z m -0.64029,0.43657 c -0.121713,0 -0.219609,-0.10055 -0.219609,-0.21961 0,-0.12171 0.100542,-0.2196 0.219609,-0.2196 0.11906,0 0.2196,0.10054 0.2196,0.2196 0,0.12171 -0.0979,0.21961 -0.2196,0.21961 z"
         id="path6"
         style="stroke-width:0.264583" />
      <path
         d="m 95.158139,134.62264 h 2.256896 c 0.07144,0 0.129646,-0.0582 0.129646,-0.12965 v -0.005 c 0,-0.0714 -0.05821,-0.12964 -0.129646,-0.12964 h -0.07144 c 0,-0.39159 -0.214312,-0.72761 -0.529166,-0.91282 v 0.25136 c 0,0.0741 -0.05821,0.13229 -0.132292,0.13229 -0.07408,0 -0.132292,-0.0582 -0.132292,-0.13229 v -0.35984 c -0.08467,-0.0212 -0.171979,-0.037 -0.264583,-0.037 -0.0926,0 -0.179917,0.0159 -0.264583,0.037 v 0.35984 c 0,0.0741 -0.05821,0.13229 -0.132292,0.13229 -0.07408,0 -0.132292,-0.0582 -0.132292,-0.13229 v -0.25136 c -0.314854,0.18521 -0.529166,0.52123 -0.529166,0.91282 h -0.06879 c -0.07144,0 -0.129646,0.0582 -0.129646,0.12964 v 0.008 c 0,0.0688 0.05821,0.127 0.129646,0.127 z"
         id="path8"
         style="stroke-width:0.264583" />
      <path
         d="m 96.285264,135.68097 c 0.492125,0 0.902229,-0.33866 1.021292,-0.79375 h -2.042584 c 0.119063,0.45509 0.529167,0.79375 1.021292,0.79375 z"
         id="path10"
         style="stroke-width:0.264583" />
    </g>
    <path
       d="m 149.41761,190.92574 v 2.96818 h -3.71022 v -2.96818 h 3.71022 m 0.37102,-0.74205 h -4.45228 c -0.20406,0 -0.37102,0.16696 -0.37102,0.37102 v 3.71024 c 0,0.20406 0.16696,0.37102 0.37102,0.37102 h 4.45228 c 0.20406,0 0.37103,-0.16696 0.37103,-0.37102 v -1.29859 l 1.48409,1.4841 v -4.08126 l -1.48409,1.48409 v -1.29858 c 0,-0.20406 -0.16697,-0.37102 -0.37103,-0.37102 z"
       id="path2-3"
       style="stroke-width:0.371022" />
    <path
       d="m 84.753855,144.54225 h -4.233334 c -0.291041,0 -0.526521,0.23813 -0.526521,0.52917 l -0.0026,3.175 c 0,0.29104 0.238125,0.52917 0.529166,0.52917 H 84.7539 c 0.291041,0 0.529166,-0.23813 0.529166,-0.52917 v -3.175 c 0,-0.29104 -0.238125,-0.52917 -0.529166,-0.52917 z m -1.322917,3.70417 h -2.910417 v -1.05833 h 2.910417 z m 0,-1.32292 h -2.910417 v -1.05833 h 2.910417 z m 1.322917,1.32292 h -1.058334 v -2.38125 h 1.058334 z"
       id="path2-6"
       style="stroke-width:0.264583" />
    <g
       id="g1666"
       transform="translate(0.54653984,4.3953729)">
      <path
         d="m 80.867671,149.56934 h -0.429715 l -0.578892,1.5875 h 0.425055 l 0.118243,-0.32427 h 0.500888 l 0.118258,0.32427 h 0.425056 z m -0.368829,0.99865 0.153972,-0.42222 0.153966,0.42222 z"
         id="path2-7"
         style="stroke-width:0.264583" />
      <path
         d="m 82.834123,149.56934 h -0.926041 v 1.5875 h 0.396875 v -0.52917 h 0.529166 a 0.38978681,0.38978681 0 0 0 0.396875,-0.39687 v -0.26459 a 0.38979739,0.38979739 0 0 0 -0.396875,-0.39687 z m 0,0.66146 h -0.529166 v -0.26459 h 0.529166 z"
         id="path4-5"
         style="stroke-width:0.264583" />
      <rect
         x="83.695518"
         y="149.56934"
         width="0.39687499"
         height="1.5875"
         id="rect6"
         style="stroke-width:0.264583" />
      <path
         d="m 84.753855,148.77559 v 3.175 h -5.291666 v -3.175 h 5.291666 m 0,-0.52917 h -5.291666 a 0.52916666,0.52916666 0 0 0 -0.529167,0.52917 v 3.175 a 0.52916666,0.52916666 0 0 0 0.529167,0.52917 h 5.291666 a 0.52916666,0.52916666 0 0 0 0.529167,-0.52917 v -3.175 a 0.52916666,0.52916666 0 0 0 -0.529167,-0.52917 z"
         id="path8-3"
         style="stroke-width:0.264583" />
    </g>
    <path
       sodipodi:nodetypes="ccscccssccccccccccccccccscscsscccccc"
       inkscape:connector-curvature="0"
       id="path74680"
       d="m 69.697966,132.32297 c -0.723517,0.0108 -1.401122,0.29721 -1.903085,0.79919 -0.99302,1.10175 -0.762925,2.85325 -0.063,3.5637 0.699913,0.71045 1.265798,0.78482 1.265798,0.78482 l 0.3996,-0.95789 c -0.207003,-0.10356 -0.766962,-0.47073 -1.005779,-0.87816 -0.238817,-0.40744 -0.247158,-1.33114 0.467396,-1.89833 0.714554,-0.56714 1.627029,-0.33025 2.002785,0.16433 0.375756,0.49458 0.476096,0.88169 0.354387,1.96061 l -0.0011,0.006 c -0.217645,0.74666 -0.02886,1.5751 0.559919,2.16389 0.534553,0.5337 1.215041,0.6336 1.951737,0.46657 l -0.01674,-0.93159 c -0.435663,0.17332 -0.842395,0.0705 -1.174073,-0.26083 -0.458389,-0.45856 -0.458389,-1.20196 0,-1.6606 0.224455,-0.22449 0.529628,-0.34838 0.847056,-0.34377 0.305481,0.005 0.597546,0.1278 0.813555,0.34377 0.234871,0.23579 0.327491,0.56649 0.319042,0.73221 l -0.02473,2.19502 h 0.523229 l 0.004,0.005 h 0.921232 l 0.30309,-0.81834 -0.893316,-0.005 c -0.003,-0.60176 -0.0039,-1.29901 0.0073,-1.57049 0.01851,-0.45228 -0.02953,-0.86543 -0.442671,-1.27936 -0.420681,-0.4207 -0.980735,-0.62297 -1.553726,-0.62297 -0.337952,0 -0.686953,0.0823 -1.000196,0.2313 -0.0492,-0.63617 -0.335647,-1.16423 -0.719439,-1.49868 -0.763182,-0.66504 -1.218652,-0.70102 -1.942167,-0.69073 z m 0.137984,3.6275 -0.773675,2.04587 0.756128,0.51683 0.743369,-1.94856 z"
       style="fill:#73ba25;fill-opacity:1;stroke:none;stroke-width:0.454226;stroke-linecap:round;stroke-linejoin:round;stroke-miterlimit:4;stroke-dasharray:none;stroke-opacity:1" />
    <path
       style="fill:none;stroke:#000000;stroke-width:0.264583px;stroke-linecap:butt;stroke-linejoin:miter;stroke-opacity:1;marker-start:url(#Arrow1Mstart-1-4);marker-end:url(#marker1816)"
       d="M 130.8213,192.5955 V 170.5021"
       id="path1666"
       sodipodi:nodetypes="cc" />
    <text
       xml:space="preserve"
       style="font-size:5.64444px;line-height:1.25;font-family:'Liberation Mono';-inkscape-font-specification:'Liberation Mono';stroke-width:0.264583"
       x="114.50927"
       y="178.53433"
       id="text887-3-9"><tspan
         sodipodi:role="line"
         id="tspan885-5-3"
         x="114.50927"
         y="178.53433"
         style="font-style:normal;font-variant:normal;font-weight:normal;font-stretch:normal;font-size:5.64444px;font-family:'Liberation Sans';-inkscape-font-specification:'Liberation Sans';stroke-width:0.264583">UART</tspan></text>
    <g
       id="g1348"
       transform="translate(59.101886,-8.693795)">
      <path
         d="m 77.227522,184.35799 h -0.264583 v -1.32292 h -2.645833 v 1.32292 h -0.206375 c -0.145521,-0.1614 -0.351896,-0.26458 -0.587375,-0.26458 -0.439209,0 -0.79375,0.35454 -0.79375,0.79375 v 1.85208 c 0,0.43921 0.354541,0.79375 0.79375,0.79375 0.235479,0 0.441854,-0.10319 0.587375,-0.26458 h 3.910541 v -2.11667 c 0,-0.43921 -0.354541,-0.79375 -0.79375,-0.79375 z m -3.439583,2.38125 c 0,0.14552 -0.119063,0.26458 -0.264583,0.26458 -0.145521,0 -0.264584,-0.11906 -0.264584,-0.26458 v -1.85208 c 0,-0.14552 0.119063,-0.26459 0.264584,-0.26459 0.14552,0 0.264583,0.11907 0.264583,0.26459 z m 1.058333,-3.175 h 1.5875 v 0.79375 h -1.5875 z m 2.645834,3.175 h -3.175 v -1.85208 h 2.910416 c 0.145521,0 0.264584,0.11906 0.264584,0.26458 z"
         id="path2-6-3"
         style="stroke-width:0.264583" />
      <circle
         cx="76.169189"
         cy="185.41632"
         r="0.26458332"
         id="circle4"
         style="stroke-width:0.264583" />
      <circle
         cx="76.962936"
         cy="185.41632"
         r="0.26458332"
         id="circle6"
         style="stroke-width:0.264583" />
      <circle
         cx="76.169189"
         cy="186.21007"
         r="0.26458332"
         id="circle8"
         style="stroke-width:0.264583" />
      <circle
         cx="76.962936"
         cy="186.21007"
         r="0.26458332"
         id="circle10"
         style="stroke-width:0.264583" />
      <rect
         height="1.3229166"
         width="1.0583333"
         x="74.581688"
         y="185.15173"
         id="rect12"
         style="stroke-width:0.264583" />
    </g>
  </g>
</svg>
